Coordinates
version=1
nRows=19
nColumns=34
inDegrees=yes

Units are S.I. units (second, meters, Newtons, ...)
If the header above contains a line with 'inDegrees', this indicates whether rotational values are in degrees (yes) or radians (no).

endheader
time	pelvis_tilt	pelvis_list	pelvis_rotation	pelvis_tx	pelvis_ty	pelvis_tz	hip_flexion_r	hip_adduction_r	hip_rotation_r	knee_angle_r	ankle_angle_r	subtalar_angle_r	mtp_angle_r	hip_flexion_l	hip_adduction_l	hip_rotation_l	knee_angle_l	ankle_angle_l	subtalar_angle_l	mtp_angle_l	lumbar_extension	lumbar_bending	lumbar_rotation	arm_flex_r	arm_add_r	arm_rot_r	elbow_flex_r	pro_sup_r	arm_flex_l	arm_add_l	arm_rot_l	elbow_flex_l	pro_sup_l
      3.96666670	      1.54411052	      5.96619124	      6.03186925	      0.15720981	      0.94354044	     -0.08393870	     -6.79861768	     -8.74983872	     -5.17244079	     30.95844155	     -9.65118721	    -28.47058538	      0.00000000	     13.36378437	      7.47725198	     -5.69888444	     19.42828839	     -2.05113429	    -27.42695670	      0.00000000	    -12.25125903	     -7.20090387	      4.89567938	      6.80618417	     -9.58849757	      2.63180035	     35.38719731	     77.51775135	      0.71803850	     -7.08647291	     -0.83288192	     14.98215103	     74.96485328
      3.98333330	      1.90163315	      6.10311317	      6.03545748	      0.17071863	      0.94571527	     -0.08705190	     -4.29598045	     -9.19639243	     -4.35261885	     36.47407478	    -12.76425324	    -30.84653124	      0.00000000	     11.07803512	      7.86044322	     -5.65400627	     17.77462502	     -0.78062641	    -26.61205148	      0.00000000	    -12.19220893	     -7.52909531	      4.50132164	      6.66580805	     -9.27436705	      2.62733116	     35.13506141	     77.50091846	      0.82804225	     -7.15713650	     -0.65469339	     14.88088067	     74.97010947
      4.00000000	      2.22400421	      6.23813182	      6.01375917	      0.18382199	      0.94663705	     -0.08998061	     -1.94866315	     -9.65052738	     -3.92487546	     41.03722537	    -13.52420575	    -32.44990309	      0.00000000	      8.69626740	      8.19229739	     -5.88049378	     15.75825579	      0.22666299	    -25.86420925	      0.00000000	    -12.07716569	     -7.80801276	      3.99590988	      6.46411917	     -8.97843280	      2.70410568	     34.85500156	     77.49264166	      0.93798168	     -7.13422422	     -0.49400767	     14.85850486	     74.96981839
      4.01666670	      2.35065273	      6.24395310	      5.87219333	      0.19571874	      0.94701078	     -0.09199826	      0.19768462	     -9.78588019	     -3.36809821	     44.23892696	    -11.77566367	    -33.97550621	      0.00000000	      6.65491355	      8.31720104	     -6.34494221	     13.83582506	      1.52925332	    -24.68775412	      0.00000000	    -11.65584955	     -8.03929425	      3.58930481	      6.28497701	     -8.55857113	      2.92426777	     34.39142716	     77.49623490	      1.16174495	     -7.25486070	     -0.22993158	     15.00345071	     74.97264695
      4.03333330	      2.16316145	      6.42312062	      5.85001410	      0.20776952	      0.94683572	     -0.09447592	      1.47008621	     -9.97312281	     -3.00594470	     45.54693309	     -5.24487694	    -33.30477612	      0.00000000	      5.12739381	      8.60613553	     -6.90995158	     12.28477026	      2.34638644	    -23.87213824	      0.00000000	    -10.95596475	     -8.38826059	      3.01076756	      5.95108139	     -8.14183761	      3.06963770	     34.10288471	     77.49522109	      1.41380033	     -7.37304921	      0.04086045	     15.15964877	     74.99801633
      4.05000000	      0.29659963	      7.25357948	      6.41165456	      0.22053799	      0.94191556	     -0.09590097	     -0.38967093	    -10.16455826	     -2.55816529	     41.63270010	      9.49766685	    -28.23646773	      0.00000000	      6.22455016	      9.26556832	     -8.90800030	     12.75567747	      3.79354134	    -22.42269822	      0.00000000	     -8.15330132	     -9.80848100	      2.39114079	      4.80923026	     -7.22200071	      2.98665149	     33.74275397	     77.46541117	      1.57955005	     -8.10166400	      0.70490892	     15.47450292	     75.12002486
      4.06666670	     -2.07546288	      7.20597340	      6.33438005	      0.23598910	      0.93818846	     -0.09733642	      3.29807872	    -10.25228506	     -1.21843513	     41.12482257	     16.48601403	    -26.66851286	      0.00000000	      7.06027815	      9.20440820	    -10.58879515	     11.93337586	      6.31855860	    -19.84983089	      0.00000000	     -5.09877608	    -10.48659614	      2.41836245	      3.30886952	     -6.61158044	      2.74032166	     33.68426868	     77.42692640	      1.35863491	     -8.53393125	      1.52376492	     16.37647611	     75.26487606
      4.08333330	      0.36328863	      3.44177164	      5.26509567	      0.24467497	      0.95046600	     -0.10278994	      9.69076881	     -6.34244699	     -1.99403448	     41.71209233	      5.24592792	    -35.00000000	      0.00000000	      2.79252135	      5.14110957	    -12.38572121	      8.96006576	      4.37488560	    -17.95291374	      0.00000000	     -8.63080606	     -5.74685650	      1.64731703	      4.74892179	     -7.59564697	      3.18694043	     32.92214662	     77.47754129	      2.55400622	     -7.00710740	      1.88722923	     16.75970714	     75.21885075
      4.10000000	      0.38844050	      2.27562613	      5.24604714	      0.25716116	      0.95646427	     -0.10571962	     14.99009385	     -5.68668779	     -4.35367503	     42.25377882	     -0.02746450	    -35.00000000	      0.00000000	      0.90656470	      4.81236861	    -11.60918755	      5.77346644	      4.92247143	    -16.68840411	      0.00000000	     -8.30654106	     -4.52383035	      0.25300594	      5.13241958	     -7.46308410	      4.23530372	     31.28571879	     77.53589660	      3.13454059	     -6.77752814	      2.08261412	     16.88351054	     75.09961100
      4.11666670	      0.78135232	      2.20685400	      4.54978305	      0.26925657	      0.96100673	     -0.10696316	     18.58002023	     -6.26142308	     -6.75975322	     41.76661585	     -2.92967327	    -35.00000000	      0.00000000	     -1.08371470	      5.14451428	    -12.20400830	      3.82253033	      5.01040564	    -16.09458480	      0.00000000	     -8.89620899	     -4.36456977	     -0.55686997	      5.16999674	     -7.27439080	      4.61351497	     30.92024192	     77.56509666	      3.93006574	     -6.86228828	      2.11923272	     17.47856605	     75.06625311
      4.13333330	      1.98351578	      1.73910253	      4.78428873	      0.28134635	      0.96489751	     -0.10891767	     19.60210472	     -5.98154502	     -8.68270247	     39.64585227	     -4.85370611	    -35.00000000	      0.00000000	     -4.01378410	      4.71920022	    -12.96795256	      2.26931027	      6.09817058	    -13.61576930	      0.00000000	    -10.23698412	     -3.50988556	     -2.35978317	      5.68648125	     -7.06486933	      5.82231332	     29.91715005	     77.65068267	      4.39121460	     -7.29586559	      2.41806785	     18.99241139	     74.99962086
      4.15000000	      2.26227623	      1.55648172	      5.25124173	      0.29549075	      0.96649306	     -0.11097178	     20.03042226	     -6.03910400	    -10.32501676	     36.21867493	     -6.62691767	    -35.00000000	      0.00000000	     -5.93801397	      4.63937328	    -13.64732083	      0.94445035	      6.40576958	    -11.35773270	      0.00000000	    -10.24326921	     -3.21342123	     -3.78297328	      5.31618136	     -6.86868579	      6.50596603	     29.17933163	     77.62558434	      5.08075891	     -7.72228612	      2.65042480	     19.96592230	     74.96735153
      4.16666670	      2.49766523	      1.45018288	      5.74166754	      0.30801510	      0.96576091	     -0.11174548	     20.47156334	     -5.91379307	    -11.20638013	     32.83829242	     -7.36572732	    -35.00000000	      0.00000000	     -7.48360292	      4.46169226	    -14.35869162	      0.25967321	      6.53271910	    -10.52340308	      0.00000000	    -10.36137384	     -2.94906802	     -4.89894691	      4.77011163	     -6.59493984	      6.61045460	     28.59162108	     77.56354897	      6.06101240	     -8.18769983	      2.91566985	     20.82044121	     75.01310297
      4.18333330	      2.42446620	      1.59258583	      6.27038645	      0.32217476	      0.96325585	     -0.11210990	     20.97285455	     -5.90182785	    -11.64341519	     29.01204444	     -7.82007019	    -35.00000000	      0.00000000	     -8.43311686	      4.44687197	    -15.02131983	      0.00000000	      6.21880523	    -10.12501052	      0.00000000	    -10.10481016	     -3.09401300	     -5.85753683	      3.97473607	     -6.32648089	      6.58855438	     28.05340932	     77.52528723	      7.09218270	     -8.60869327	      3.07233025	     21.52409742	     75.05878353
      4.20000000	      2.44405305	      1.66691421	      6.74747929	      0.33736213	      0.96095474	     -0.11274305	     21.17944655	     -5.60754783	    -11.69093549	     24.95384401	     -8.32093201	    -35.00000000	      0.00000000	     -9.40473444	      4.29029271	    -15.80632618	      0.00000000	      6.14207098	     -9.60178447	      0.00000000	    -10.03780296	     -3.04728073	     -6.93690709	      3.44641222	     -5.97946486	      6.35743733	     27.27508341	     77.44427222	      7.98411133	     -9.14579919	      3.41826946	     22.41550330	     75.15445900
      4.21666670	      2.71041818	      1.74891766	      7.04030381	      0.35036168	      0.95942923	     -0.11286521	     21.31392984	     -5.17887108	    -11.13414805	     20.98780235	     -7.87838063	    -34.28697225	      0.00000000	    -10.71177595	      4.09114438	    -16.63519280	      0.00000000	      6.58922669	     -8.64454860	      0.00000000	    -10.42333407	     -2.98011379	     -7.94748069	      3.18877568	     -5.50369640	      5.78616267	     26.01068595	     77.30076634	      8.80508431	     -9.86868433	      4.11895320	     23.78688964	     75.30763112
      4.23333330	      2.97551204	      1.51113646	      7.26685720	      0.36458490	      0.95832306	     -0.11402628	     21.51513103	     -4.54903975	    -10.99738399	     17.16946621	     -4.60300253	    -29.07395976	      0.00000000	    -12.05663867	      3.61474210	    -17.10589482	      0.00000000	      7.17291618	     -7.54660187	      0.00000000	    -10.70534437	     -2.43131940	     -8.67723575	      2.86762023	     -5.35816882	      5.21742073	     24.90519331	     77.20945891	      9.70630089	    -10.24741302	      4.61320979	     24.88237615	     75.33229063
      4.25000000	      3.28306903	      1.05231871	      7.37120888	      0.37907275	      0.95761174	     -0.11475453	     21.67655727	     -3.68721660	    -10.92716615	     13.61220620	     -2.15948577	    -23.83439920	      0.00000000	    -13.44763169	      2.91804742	    -17.31989228	      0.00000000	      8.08371567	     -6.56493713	      0.00000000	    -11.00524492	     -1.59204830	     -9.23148633	      2.53259005	     -5.35573936	      4.85716391	     23.93061626	     77.17486979	     10.70104342	    -10.44880407	      4.67502467	     25.72790307	     75.22899681
      4.26666670	      3.80658163	      0.65043763	      7.38697699	      0.39511329	      0.95753264	     -0.11549736	     21.36918546	     -2.88173545	    -10.94956444	     10.46427952	     -0.72862515	    -19.24775563	      0.00000000	    -15.13308753	      2.29279348	    -17.62236912	      0.00000000	      8.68529768	     -5.82621636	      0.00000000	    -11.54290080	     -0.70880205	     -9.83906759	      2.39777088	     -5.48009476	      4.49691013	     22.82585660	     77.13158676	     11.41492301	    -10.59411860	      4.51562754	     26.51124712	     75.05460786
